<svg xmlns="http://www.w3.org/2000/svg" viewBox="0 0 960 540"><defs><linearGradient id="s" x1="0" y1="0" x2="0" y2="1"><stop offset="0" stop-color="#7dd3fc"/><stop offset="1" stop-color="#e0f2fe"/></linearGradient><linearGradient id="w" x1="0" y1="0" x2="0" y2="1"><stop offset="0" stop-color="#0ea5e9"/><stop offset="1" stop-color="#0369a1"/></linearGradient></defs><rect width="960" height="540" fill="url(#s)"/><circle cx="760" cy="120" r="56" fill="#fde68a"/><path d="M0 330q120-40 240 0t240 0 240 0 240 0v210H0z" fill="url(#w)"/><path d="M0 430q160-60 320 0t320 10 320-20v120H0z" fill="#fcd34d"/><path d="M90 430c10-90 30-140 70-170M160 260c-40 0-70 20-90 40M160 260c30-10 60 0 80 20M160 260c-10-30-40-40-70-40M160 260c20-30 50-30 70-20" stroke="#166534" stroke-width="12" fill="none" stroke-linecap="round"/></svg>
